<svg xmlns="http://www.w3.org/2000/svg" width="648" height="648" viewBox="0 0 648 648">
  <defs>
    <style>
      .cls-1 {
        fill: #282828;
        fill-rule: evenodd;
      }
    </style>
  </defs>
  <path id="logo-png_1" data-name="logo-png 1" class="cls-1" d="M256.014,65.67c-2.141,14.361-11.335,23.12-17.22,32.959-15.381,25.711-52.575,62.687-80.8,70.862V148.068c5.195-9.973,4.469-24.715,9.272-34.608C184.334,78.306,210.458,61.223,256.014,65.67ZM514.309,169.491c-24.921-4.424-67.762-49.027-80.8-70.862C427.668,88.847,418.322,80,416.289,65.67,476.931,59.521,515.053,95.056,514.309,169.491ZM151.371,93.685h2.649c0.861,69.328-22.5,124.421-41.062,171.388l-2.649-1.648c-3.9-10-9.228-20.012-11.922-31.311-11.316-47.465,12.832-103.2,33.115-121.95C137.927,104.226,145.632,100.459,151.371,93.685Zm366.912,0c25.979,8.194,50.226,55.21,56.957,88.99,5.423,27.213-2.531,68.845-14.57,80.75v1.648h-1.325v-1.648c-4.589-6.246-5.95-15.112-9.272-23.072C533.6,200.881,519.355,151.7,518.283,93.685Zm-325.85,75.806c7.9-.055,13.528,1.6,19.869,3.3v3.3c-8.446,11.211-12.529,28.872-19.869,41.2-13.151,22.087-38.911,42.075-59.606,54.383V240.353c2.643-4.974,1.961-12.169,3.973-18.127,4.442-13.146,13.657-29.963,22.519-37.9,6.168-5.527,16.14-10.468,23.842-13.184C186.834,169.844,190.105,171.305,192.433,169.491Zm278.164,0c48.377-.016,69.689,39.807,68.879,102.174h-1.324c-6.234-7.362-15.184-10.413-22.518-16.48-22.258-18.413-48.032-46.469-55.633-82.4h2.649C464.232,171.506,469.028,170.814,470.6,169.491ZM87.791,240.353c5.768,7.134,6.705,16.528,10.6,26.368,8.794,22.233,25.8,87.394,15.895,125.245C74.112,363.166,63.725,299.787,87.791,240.353Zm495.4,0c8.846,8.621,19.5,55.079,14.57,80.75-5.632,29.336-19.432,61.89-41.062,70.863V339.231q3.31-21.422,6.623-42.847C568.514,276.866,576.277,258,583.188,240.353Zm-422.545,24.72c3.269,2.133.9-.707,2.649,3.3,3.711,7.017,1.374,30.521,0,37.9q-0.662,9.063-1.324,18.127c-6.142,23.365-17.956,41.125-26.492,60.975h-1.325v-1.648c-17.859-22.926-11.87-73.454,1.325-95.582C141.806,277.528,152.909,273.952,160.643,265.073Zm348.368,0c7.159,2.169,10.991,7.108,15.895,11.535,28.907,26.1,29.645,67.1,13.246,108.766l-2.65-1.648C524.665,356.742,496.129,314.4,509.011,265.073ZM152.7,370.542c18.776,11.11,19.034,76.447,10.6,102.174h-1.324v-1.648C133.069,448.238,136.088,404.549,152.7,370.542Zm364.262,0c28.141,12.276,14.063,92.39-9.272,102.174-0.87-11.993-3.351-24.819-5.3-36.255C498.042,410.934,510.969,385.959,516.958,370.542ZM90.44,385.374c26.143,10.651,51.933,63.72,58.282,100.525h-2.649l-21.194-9.887C103.079,459.8,90.232,429.119,90.44,385.374Zm488.774,0h2.649c0.616,56.369-21.1,91.264-58.282,100.525v-4.943c8.8-14.448,10.591-36.236,18.544-51.087C551.884,411.647,567.3,400.826,579.214,385.374Zm-404,72.51c19.517,8.206,31.352,42.052,31.79,74.158h-2.649c-4.53-4.976-11.038-7-15.895-11.535C174.353,507.332,172.541,483.659,175.214,457.884Zm319.226,0h2.649c2.643,36.951-4.307,66.477-31.79,74.158V520.507c5.327-10.617,4.244-26.123,9.272-36.256C479.792,473.732,488.528,467.259,494.44,457.884ZM131.5,492.491c24.49,5.77,58.247,29.614,64.905,56.031h-5.3c-6,4.569-19.048-2.307-23.843-4.944C149.94,534.052,135.831,517.669,131.5,492.491Zm406.65,0H540.8c-9.994,34.652-28.318,59.661-64.905,56.031v-3.3c10.831-10.193,17.241-26.854,29.141-36.255C514.486,501.506,528.744,500.857,538.152,492.491ZM250.715,565c-24.286-1.6-34.477-20.248-38.413-47.791h5.3C230.875,532.433,247.439,536.892,250.715,565Zm207.961-47.791c0.368,29.1-15.535,46.391-37.088,47.791C423.705,542.3,440.873,520.261,458.676,517.211ZM185.81,558.41c30.212-.9,41.574,9.721,59.607,21.423v3.3c-5.331,1.039-10.008,3.68-14.571,4.944C210.627,593.674,191.492,572.466,185.81,558.41Zm278.164,0h22.519v1.648c-10.32,12.789-24.379,34.007-46.361,26.367-6.156-2.139-10.421-.478-13.246-6.592h1.325c6.635-8.215,18.274-15.734,27.816-19.775C459.263,558.687,461.92,560.115,463.974,558.41Z"/>
  <path id="tj_2" data-name="tj 2" class="cls-1" d="M397.211,140.024c4.4-.083,8.282-0.067,10.6,1.387,7.5,2.357,6.618,8.836,6.058,18.027q-2.271,6.24-4.544,12.481c-5.189,2.542-12.159,2.933-21.2,2.773-2.873-2.816-4.351-2.59-6.059-6.933-5.287-5.891-1.862-14.25,0-20.8a37.43,37.43,0,0,0,7.573-5.547C393.473,141.308,395.266,141.244,397.211,140.024Zm-86.334,47.149c6.833-.8,19.946-5.679,22.719-4.16,2.77,2.174,2.114,1.223,3.03,5.547-3.094,1.206-26.172,8.142-27.263,9.707-6.194,8.412-4.475,22.393-7.574,33.281-6.942,24.4-9.017,52.888-15.146,79.044-3.438,14.673.9,31.811,13.632,33.282,4.211-3.853,11.5-5.387,15.146-9.707,19.443-23.038,34.029-50.083,46.953-79.044,10.857-24.327,8.688-53.454,43.924-55.469,4.01,4.2,4.8,6.447,4.544,15.254-5.786,8.692-1.8,23.589-4.544,34.668-6.619,26.7-11.411,58.357-12.117,87.364H395.7v-2.773c18.835-12.293,47.083-57.235,59.07-77.657,5.741-9.781,7.016-31.574,21.2-33.282,1.456,2.449,1.9,2.33,3.029,5.547-7.5,8.866-9.41,23.157-15.146,33.282a469.854,469.854,0,0,1-42.41,62.4c-9.168,11.436-30.2,21.762-31.807,38.828-7.614,11.788-3.572,40.113-7.573,55.469-12.906,49.539-14.3,92.48-54.526,116.486-15.116,9.02-44.193,11.078-62.1,1.387-20.227-10.948-37.3-35.9-24.234-65.177,16.138-36.164,49-65.915,78.76-90.137,10.1-8.221,30.385-16.541,31.807-31.895,6.643-9.327,12.363-58.224,13.632-73.5h-1.515V278.7c-5.984,6.089-7.811,16.011-12.117,23.575-11.55,20.287-35.555,58.608-66.643,59.629-8.578-5.735-20.352-5.093-24.234-15.254-9.579-9.5-7.994-33.114-7.573-51.309,0.85-36.777,16.571-66.661,18.175-101.231L239.69,196.88c-6.9,2.1-9.009,5.99-18.175,6.934L220,199.654c13.705-12.947,26.715-14.14,54.526-13.868v-2.773c5.687-8.441,2.745-26.983,12.117-31.9,6.076-3.975,19.549-2.932,27.263-1.387,2.183,3.7,3.02,5.854,3.03,12.481Q313.906,174.691,310.877,187.173Zm34.836,188.6c-4.882,6.708-11.73,10-18.175,15.254-27.711,22.577-64.974,57.341-75.731,94.3-3.24,11.13,2.62,20.862,4.544,27.734,4.627,2.825,8.286,7.7,13.631,9.707,16.013,6.019,30.618-2.95,37.866-9.707,21.687-20.215,21.606-50.038,30.292-83.2C340.375,421.321,350.266,382.637,345.713,375.769Z"/>
</svg>
