<svg xmlns="http://www.w3.org/2000/svg" width="648" height="648" viewBox="0 0 648 648">
    <path id="tj_2" data-name="tj 2" class="cls-1"
        d="M397.211,140.024c4.4-.083,8.282-0.067,10.6,1.387,7.5,2.357,6.618,8.836,6.058,18.027q-2.271,6.24-4.544,12.481c-5.189,2.542-12.159,2.933-21.2,2.773-2.873-2.816-4.351-2.59-6.059-6.933-5.287-5.891-1.862-14.25,0-20.8a37.43,37.43,0,0,0,7.573-5.547C393.473,141.308,395.266,141.244,397.211,140.024Zm-86.334,47.149c6.833-.8,19.946-5.679,22.719-4.16,2.77,2.174,2.114,1.223,3.03,5.547-3.094,1.206-26.172,8.142-27.263,9.707-6.194,8.412-4.475,22.393-7.574,33.281-6.942,24.4-9.017,52.888-15.146,79.044-3.438,14.673.9,31.811,13.632,33.282,4.211-3.853,11.5-5.387,15.146-9.707,19.443-23.038,34.029-50.083,46.953-79.044,10.857-24.327,8.688-53.454,43.924-55.469,4.01,4.2,4.8,6.447,4.544,15.254-5.786,8.692-1.8,23.589-4.544,34.668-6.619,26.7-11.411,58.357-12.117,87.364H395.7v-2.773c18.835-12.293,47.083-57.235,59.07-77.657,5.741-9.781,7.016-31.574,21.2-33.282,1.456,2.449,1.9,2.33,3.029,5.547-7.5,8.866-9.41,23.157-15.146,33.282a469.854,469.854,0,0,1-42.41,62.4c-9.168,11.436-30.2,21.762-31.807,38.828-7.614,11.788-3.572,40.113-7.573,55.469-12.906,49.539-14.3,92.48-54.526,116.486-15.116,9.02-44.193,11.078-62.1,1.387-20.227-10.948-37.3-35.9-24.234-65.177,16.138-36.164,49-65.915,78.76-90.137,10.1-8.221,30.385-16.541,31.807-31.895,6.643-9.327,12.363-58.224,13.632-73.5h-1.515V278.7c-5.984,6.089-7.811,16.011-12.117,23.575-11.55,20.287-35.555,58.608-66.643,59.629-8.578-5.735-20.352-5.093-24.234-15.254-9.579-9.5-7.994-33.114-7.573-51.309,0.85-36.777,16.571-66.661,18.175-101.231L239.69,196.88c-6.9,2.1-9.009,5.99-18.175,6.934L220,199.654c13.705-12.947,26.715-14.14,54.526-13.868v-2.773c5.687-8.441,2.745-26.983,12.117-31.9,6.076-3.975,19.549-2.932,27.263-1.387,2.183,3.7,3.02,5.854,3.03,12.481Q313.906,174.691,310.877,187.173Zm34.836,188.6c-4.882,6.708-11.73,10-18.175,15.254-27.711,22.577-64.974,57.341-75.731,94.3-3.24,11.13,2.62,20.862,4.544,27.734,4.627,2.825,8.286,7.7,13.631,9.707,16.013,6.019,30.618-2.95,37.866-9.707,21.687-20.215,21.606-50.038,30.292-83.2C340.375,421.321,350.266,382.637,345.713,375.769Z" />
</svg>