<svg xmlns="http://www.w3.org/2000/svg" width="624" height="624" viewBox="0 0 624 624">
  <defs>
    <style>
      .cls-1 {
        fill: #282828;
        fill-rule: evenodd;
      }
    </style>
  </defs>
  <path id="tj_1" data-name="tj 1" class="cls-1" d="M440.632,85c8.031-.1,15.126-0.079,19.362,1.628C473.7,89.395,472.08,97,471.058,107.788q-4.147,7.323-8.3,14.649c-9.477,2.984-22.206,3.443-38.725,3.256-5.246-3.306-7.945-3.041-11.064-8.139-9.656-6.914-3.4-16.725,0-24.416a75.283,75.283,0,0,0,13.83-6.511C433.806,86.507,437.081,86.432,440.632,85ZM282.965,140.342c12.479-.933,36.426-6.666,41.491-4.883,5.058,2.552,3.86,1.435,5.532,6.511-5.649,1.416-47.8,9.557-49.789,11.393-11.312,9.875-8.172,26.285-13.831,39.065-12.679,28.637-16.468,62.079-27.66,92.779-6.279,17.223,1.651,37.339,24.894,39.065,7.691-4.523,21-6.322,27.661-11.394,35.507-27.041,62.145-58.785,85.749-92.779,19.827-28.554,15.866-62.742,80.216-65.108,7.322,4.934,8.757,7.568,8.3,17.9-10.566,10.2-3.282,27.689-8.3,40.692-12.089,31.344-20.84,68.5-22.129,102.546h2.766v-3.256c34.4-14.429,85.987-67.18,107.878-91.151,10.483-11.48,12.813-37.061,38.725-39.065,2.659,2.875,3.477,2.735,5.532,6.511-13.69,10.406-17.185,27.181-27.661,39.065a618.2,618.2,0,0,1-77.45,73.246c-16.744,13.424-55.157,25.545-58.088,45.576-13.906,13.836-6.524,47.083-13.83,65.108-23.57,58.147-26.11,108.549-99.579,136.727-27.606,10.588-80.708,13-113.41,1.628-36.939-12.85-68.113-42.143-44.257-76.5,29.473-42.448,89.487-77.37,143.836-105.8,18.447-9.649,55.492-19.414,58.088-37.437,12.132-10.947,22.578-68.342,24.895-86.268h-2.766v3.255c-10.929,7.147-14.264,18.793-22.129,27.671-21.093,23.813-64.933,68.793-121.707,69.991-15.665-6.732-37.167-5.978-44.258-17.9-17.492-11.147-14.6-38.869-13.83-60.225,1.553-43.168,30.264-78.245,33.193-118.823l-58.088,3.256c-12.609,2.464-16.452,7.03-33.193,8.138L117,154.991c25.029-15.2,48.789-16.6,99.579-16.277v-3.255c10.385-9.908,5.012-31.672,22.129-37.437,11.1-4.666,35.7-3.442,49.789-1.628,3.987,4.346,5.515,6.871,5.532,14.649Q288.5,125.691,282.965,140.342Zm63.62,221.367c-8.917,7.874-21.422,11.741-33.193,17.9-50.607,26.5-118.659,67.306-138.3,110.684-5.917,13.065,4.785,24.487,8.3,32.554,8.451,3.316,15.132,9.035,24.9,11.394,29.242,7.064,55.914-3.464,69.152-11.394,39.606-23.728,39.458-58.733,55.321-97.662C336.835,415.177,354.9,369.771,346.585,361.709Z" transform="translate(-41.484 -9.484)"/>
</svg>
