<svg xmlns="http://www.w3.org/2000/svg" width="645.5" height="646.656" viewBox="0 0 645.5 646.656">
    <path id="logo-path_1" data-name="logo-path 1" class="cls-1"
        d="M636.342,239.049h-4.066c0.045-42.42-33.915-79.315-62.013-94.028-8.714-4.563-18.315-7.9-27.448-11.243-4.28-1.565-8.443-.876-12.2-3.066-2.422-1.412-3.356-4.863-5.083-7.154-6.581-8.73-17.535-18.659-25.415-26.573a409,409,0,0,0-69.129-55.19,353.822,353.822,0,0,0-45.747-24.529c-6.567-2.874-19.53-3.757-22.365-10.22h2.033c7.9-5.343,21.1-3.728,31.515-6.132C414.974-3.37,454.7-6.992,476.736-2.153l19.316,1.022c16.711,3.882,33.909,6.95,48.8,13.287,62.813,26.733,101.883,86.974,96.577,181.924Q638.884,216.561,636.342,239.049ZM242.918,10.112v3.066c-45.18.927-81.442,33.11-95.561,65.411-4.126,9.44-7.082,28-12.2,35.772-2.847,4.323-10.034,8.054-14.232,11.242l-12.2,13.287L94.494,152.175c-9.73,12.94-21.282,24.642-30.5,37.816C54.2,204,47.658,218.908,38.581,233.938c-7.818,12.946-17.8,29.56-20.332,47.014H15.2c-0.858-11.262-4.7-21.659-7.116-31.683L3,204.3V185.9c0-28.627,3.537-54.776,11.183-75.631C31.032,64.313,55.7,33.585,99.577,15.222c9.9-4.143,18.993-4.344,30.5-7.154,11.841-2.893,39.657-8.414,54.9-5.11,7.775,1.686,18,.151,26.431,2.044A221.652,221.652,0,0,0,242.918,10.112Zm15.249,0C397.156,6.955,494.529,94.178,550.948,174.66c8.419,12.01,18.546,24.234,26.432,36.793,7.081,11.28,11.313,23.151,18.3,34.75,5.246,8.709,13.459,20.546,15.249,31.683-7.262,5.82-11.009,16.614-16.265,24.529-3.192,4.807-8.8,8.711-12.2,13.287-11.254,15.137-23.653,30.559-38.631,41.9-6.623,5.016-17.188,19.757-25.415,21.463v-2.044c-5.079-7.853-4-21.313-7.116-30.661-9.13-27.42-17.294-55.085-28.465-80.741C436.7,159.666,361.014,62.282,258.167,13.178V10.112Zm19.315,25.551c11.065,1.781,21.372,13.56,29.482,19.419,22.168,16.015,43.659,34.343,59.979,56.212,4.793,6.423,14.479,11.453,17.282,19.419-14.494,1.343-29.386,6.2-41.68,10.221-7.858,2.569-13.681,2.532-21.349,5.11-19.083,6.416-38.486,14.794-55.913,22.485-99.7,44-200.188,116.648-241.951,217.694H21.3V346.363c2.885-5,.531-14.289,2.033-20.441,3.791-15.519,6.238-31.133,11.183-45.992,12.816-38.513,33.354-71.088,54.9-101.182,5.339-7.459,13.838-13.157,19.316-20.441,26.435-35.152,66.131-64.056,103.693-87.9,14.189-9.005,29.741-16.685,44.73-24.529C263.781,42.413,272.3,40.635,277.482,35.663ZM358.81,177.726c2.952-.061,5.56-0.049,7.117,1.022,5.037,1.738,4.441,6.512,4.066,13.287q-1.526,4.6-3.05,9.2c-3.483,1.874-8.161,2.162-14.232,2.044-1.928-2.076-2.92-1.909-4.067-5.11-3.548-4.341-1.25-10.5,0-15.331a25.411,25.411,0,0,0,5.083-4.088C356.3,178.673,357.505,178.625,358.81,177.726Zm-57.946,34.75c4.587-.586,13.388-4.186,15.249-3.067,1.859,1.6,1.419.9,2.033,4.089-2.076.889-17.566,6-18.3,7.154-4.157,6.2-3.007,16.5-5.083,24.529-4.676,18.068-6.042,38.926-10.166,58.256-2.308,10.814.606,23.445,9.149,24.529,2.826-2.84,7.719-3.97,10.166-7.154a219.869,219.869,0,0,0,28.465-50.08c7.833-19.183,7.162-47.465,32.531-49.058,2.691,3.1,3.218,4.752,3.05,11.242-3.883,6.409-1.206,17.385-3.05,25.551a354.435,354.435,0,0,0-8.133,63.367h1.017c4.719-7.864,12.109-14.1,17.282-21.463a317.366,317.366,0,0,0,23.382-38.838c3.556-7.083,3.938-21.29,13.216-22.484,0.977,1.805,1.278,1.717,2.033,4.088q-5.082,12.263-10.166,24.529a349.3,349.3,0,0,1-28.465,45.992c-6.134,8.4-20.278,16.125-21.349,28.617-5.111,8.687-2.4,29.564-5.083,40.881-8.662,36.511-9.6,68.159-36.6,85.852-10.146,6.648-29.662,8.164-41.681,1.022-13.567-8.063-25.1-26.475-16.266-48.036,11.158-27.234,33.111-47.542,52.864-66.433,6.687-6.395,20.374-11.951,21.348-23.507,4.388-6.764,8.308-43.043,9.15-54.168h-1.017v2.044c-3.986,4.557-5.224,11.77-8.133,17.375-7.1,13.69-18.456,33.16-31.514,40.882-9.662,5.712-26.213,1.185-29.482-8.177-6.429-7-5.365-24.4-5.083-37.815,0.571-27.105,11.123-49.131,12.2-74.609l-21.348,2.044c-4.634,1.547-6.047,4.414-12.2,5.11l-1.017-3.066c9.2-9.542,17.931-10.421,36.6-10.221v-2.044c3.817-6.221,1.842-19.887,8.133-23.507,4.078-2.929,13.12-2.161,18.3-1.022,1.539,2.868,2.078,5.074,2.034,10.221C302.432,198.844,301.456,207.567,300.864,212.476Zm334.462,44.969c3.093,146.492-80.8,235.105-164.689,294.348-13.386,9.453-27.4,19.839-41.681,28.617-6.981,4.291-14.3,5.934-21.349,10.221-8.478,5.156-20.011,13.175-31.514,14.308-6.616-9.195-21.373-14.676-30.5-21.463-17.956-13.354-33.147-30.25-48.8-45.992-5.872-5.906-20.617-18.97-22.366-27.6,14.805-.663,29.666-6.211,41.681-10.22,20.074-6.7,37.086-10.974,54.9-18.4,80.933-33.73,142.918-72.955,199.253-130.821,17.546-18.022,33.163-40.655,46.764-62.344C621.056,281.681,628.8,259.287,635.326,257.445Zm-499.151,4.088c2.508,1.324.692-.438,2.033,2.045,5.349,8.293,5.721,27.524,9.149,37.815,8.028,24.1,15.508,48.792,25.415,71.543,47.57,109.237,119.652,204.887,225.686,255.51v2.044H363.893L333.4,626.4c-20.59-5.63-41.534-10.305-59.979-18.4-81.342-35.684-139.329-96.917-186.038-167.614-11.187-16.933-20.713-34.2-30.5-53.147-3.833-7.421-10.223-14.693-11.183-24.529,6.7-4.879,9.438-14.576,14.232-21.462,7.127-10.237,15.806-19.413,23.382-29.64l17.283-16.352,17.282-18.4C124,272.221,131.881,267.94,136.175,261.533Zm188.071,89.94c-3.542,5.293-8.731,7.971-13.216,12.265C295.4,378.7,275.306,396.981,266.3,417.906c-5.118,11.891-8.528,32.294,3.049,39.859,9.639,6.3,22.416,1.823,28.465-4.088,16.581-16.2,15.876-41.309,22.366-68.477C321.547,379.475,327.074,356.148,324.246,351.473Zm90.477,280.039v-3.066c49.619-.993,79.481-34.978,96.578-69.5q5.082-15.84,10.166-31.683L535.7,515c12.008-12.029,24.26-24.1,34.564-37.816l8.133-7.154c17.257-23.275,35.748-48.834,47.78-76.653,4.944-11.431,8.094-22.873,13.216-33.728h2.033c0.343,11.08,3.805,21.133,6.1,30.662,3.9,16.206,2.583,32.545,6.1,49.058v16.352c0,21.391-1.673,39.014-6.1,55.19-2.728,9.972-2.5,18.7-6.1,27.595-21.874,53.97-59.487,82.412-120.975,97.094C485.257,644,446.956,631.931,414.723,631.512ZM20.282,403.6h4.066c0.421,43.7,36.121,81.41,67.1,95.05,8.726,3.843,17.672,6.958,26.432,10.22l9.149,2.044q12.707,14.307,25.415,28.618C179.6,560.2,202.721,584.09,232.752,602.9c12.765,7.994,27.895,15.439,41.68,21.463,6.492,2.836,18.195,3.087,21.349,9.2h-1.016c-7.128,5.041-20.077,3.845-29.482,6.132-19.9,4.841-62.382,9.4-86.411,4.089l-17.282-1.022c-15.991-3.693-32.425-6.2-46.764-12.265C53.682,604.63,6.466,542.93,15.2,447.545Z"
        transform="translate(-2.5)" />
</svg>